<svg width="199" height="199" viewBox="0 0 199 199" fill="none" xmlns="http://www.w3.org/2000/svg">
<path d="M99.5 0C44.5594 0 0 44.5511 0 99.5C0 143.462 28.5067 180.758 68.0497 193.917C73.0164 194.838 74.625 191.753 74.625 189.133V170.609C46.9474 176.629 41.1847 158.868 41.1847 158.868C36.6575 147.368 30.1319 144.308 30.1319 144.308C21.1023 138.131 30.8201 138.264 30.8201 138.264C40.8116 138.96 46.0685 148.52 46.0685 148.52C54.9406 163.727 69.3432 159.333 75.023 156.787C75.9102 150.361 78.4889 145.967 81.3413 143.487C59.244 140.958 36.0107 132.426 36.0107 94.3094C36.0107 83.439 39.8995 74.567 46.2592 67.602C45.231 65.0896 41.8232 54.9655 47.2293 41.2676C47.2293 41.2676 55.5873 38.5977 74.6001 51.4664C82.5353 49.2608 91.0425 48.158 99.5 48.1165C107.958 48.158 116.473 49.2608 124.425 51.4664C143.421 38.5977 151.762 41.2676 151.762 41.2676C157.177 54.9738 153.769 65.0979 152.741 67.602C159.125 74.567 162.981 83.4473 162.981 94.3094C162.981 132.526 139.706 140.942 117.551 143.404C121.116 146.489 124.375 152.542 124.375 161.828V189.133C124.375 191.778 125.967 194.887 131.017 193.909C170.526 180.733 199 143.446 199 99.5C199 44.5511 154.449 0 99.5 0Z" fill="white"/>
</svg>
